# xmcd
#
# Track frame offsets:
#	150
#	16978
#	48268
#	61657
#	73906
#	88368
#	104154
#	114966
#	126462
#	149574
#	162258
#	186388
#	196653
#	208129
#	233415
#
# Disc length: 3302 seconds
#
# Revision: 0
# Processed by: cddbd v1.5.1PL0 Copyright (c) Steve Scherf et al.
# Submitted via: dBpowerAMP V4.0
#
DISCID=de0ce40f
DTITLE=Various Artist - Les titres essentiels cd 2
DYEAR=1900
DGENRE=Ambient
TTITLE0=The Robert Jackson singers - Didn´t rain
TTITLE1=Polya Jordan - Somethimes i feel like a motherless child
TTITLE2=Mahalia Jackson - Oh,my lord
TTITLE3=The new orleans Spiritualettes - I Believe
TTITLE4=Bessie Smith - Moan,you moaners
TTITLE5=Zion Harmonizers - Never alone
TTITLE6=The golden Gate quartet - Jonah in the whale
TTITLE7=Louis Armstrong - Shadrack
TTITLE8=Tori Robinson and The Vintage jazzmen - Tell me what kind of man Jesus is
TTITLE9=Mahalia Jackson - Shall i meet you over yonder?
TTITLE10=Segan´/ To my lord
TTITLE11=Voices choeur international - Deep river
TTITLE12=Mahalia Jackson - The last mile of the way
TTITLE13=Johnny Thompson singers - Wake up now
TTITLE14=Segan´/ Keep your hand,oh lord
EXTD=
EXTT0=
EXTT1=
EXTT2=
EXTT3=
EXTT4=
EXTT5=
EXTT6=
EXTT7=
EXTT8=
EXTT9=
EXTT10=
EXTT11=
EXTT12=
EXTT13=
EXTT14=
PLAYORDER=
